<svg width="97" height="40" viewBox="0 0 97 40" fill="none" xmlns="http://www.w3.org/2000/svg">
<path d="M16.8981 31.408V31.872H14.4341V33.96H16.5141V34.424H14.4341V37H13.8741V31.408H16.8981ZM22.7314 37.056C22.2141 37.056 21.7448 36.936 21.3234 36.696C20.9021 36.4507 20.5688 36.112 20.3234 35.68C20.0834 35.2427 19.9634 34.7493 19.9634 34.2C19.9634 33.6507 20.0834 33.16 20.3234 32.728C20.5688 32.2907 20.9021 31.952 21.3234 31.712C21.7448 31.4667 22.2141 31.344 22.7314 31.344C23.2541 31.344 23.7261 31.4667 24.1474 31.712C24.5688 31.952 24.8994 32.2907 25.1394 32.728C25.3794 33.16 25.4994 33.6507 25.4994 34.2C25.4994 34.7493 25.3794 35.2427 25.1394 35.68C24.8994 36.112 24.5688 36.4507 24.1474 36.696C23.7261 36.936 23.2541 37.056 22.7314 37.056ZM22.7314 36.568C23.1474 36.568 23.5208 36.472 23.8514 36.28C24.1821 36.088 24.4434 35.8133 24.6354 35.456C24.8274 35.0933 24.9234 34.6747 24.9234 34.2C24.9234 33.7253 24.8274 33.3093 24.6354 32.952C24.4434 32.5947 24.1821 32.32 23.8514 32.128C23.5208 31.936 23.1474 31.84 22.7314 31.84C22.3154 31.84 21.9421 31.936 21.6114 32.128C21.2808 32.32 21.0194 32.5947 20.8274 32.952C20.6354 33.3093 20.5394 33.7253 20.5394 34.2C20.5394 34.6747 20.6354 35.0933 20.8274 35.456C21.0194 35.8133 21.2808 36.088 21.6114 36.28C21.9421 36.472 22.3154 36.568 22.7314 36.568ZM31.9001 37L30.5161 34.664H29.4841V37H28.9241V31.408H30.6041C31.2281 31.408 31.7001 31.5573 32.0201 31.856C32.3454 32.1547 32.5081 32.5467 32.5081 33.032C32.5081 33.4373 32.3908 33.784 32.1561 34.072C31.9268 34.3547 31.5854 34.5387 31.1321 34.624L32.5721 37H31.9001ZM29.4841 34.208H30.6121C31.0494 34.208 31.3774 34.1013 31.5961 33.888C31.8201 33.6747 31.9321 33.3893 31.9321 33.032C31.9321 32.664 31.8254 32.3813 31.6121 32.184C31.3988 31.9813 31.0628 31.88 30.6041 31.88H29.4841V34.208ZM43.8547 35.672H41.3107L40.8227 37H40.2307L42.2707 31.48H42.9027L44.9347 37H44.3427L43.8547 35.672ZM43.6867 35.208L42.5827 32.184L41.4787 35.208H43.6867ZM51.2095 37L49.8255 34.664H48.7935V37H48.2335V31.408H49.9135C50.5375 31.408 51.0095 31.5573 51.3295 31.856C51.6548 32.1547 51.8175 32.5467 51.8175 33.032C51.8175 33.4373 51.7001 33.784 51.4655 34.072C51.2361 34.3547 50.8948 34.5387 50.4415 34.624L51.8815 37H51.2095ZM48.7935 34.208H49.9215C50.3588 34.208 50.6868 34.1013 50.9055 33.888C51.1295 33.6747 51.2415 33.3893 51.2415 33.032C51.2415 32.664 51.1348 32.3813 50.9215 32.184C50.7081 31.9813 50.3721 31.88 49.9135 31.88H48.7935V34.208ZM58.6008 31.408V31.872H57.0488V37H56.4888V31.872H54.9288V31.408H58.6008ZM62.445 31.408V37H61.885V31.408H62.445ZM67.8092 37.056C67.4412 37.056 67.1158 36.992 66.8332 36.864C66.5558 36.736 66.3372 36.5573 66.1772 36.328C66.0172 36.0987 65.9318 35.8427 65.9212 35.56H66.5132C66.5398 35.832 66.6598 36.072 66.8732 36.28C67.0865 36.4827 67.3985 36.584 67.8092 36.584C68.1878 36.584 68.4865 36.488 68.7052 36.296C68.9292 36.0987 69.0412 35.8507 69.0412 35.552C69.0412 35.312 68.9798 35.12 68.8572 34.976C68.7345 34.8267 68.5825 34.7173 68.4012 34.648C68.2198 34.5733 67.9692 34.4933 67.6492 34.408C67.2758 34.3067 66.9798 34.208 66.7612 34.112C66.5425 34.016 66.3558 33.8667 66.2012 33.664C66.0465 33.4613 65.9692 33.1867 65.9692 32.84C65.9692 32.552 66.0438 32.296 66.1932 32.072C66.3425 31.8427 66.5532 31.664 66.8252 31.536C67.0972 31.408 67.4092 31.344 67.7612 31.344C68.2785 31.344 68.6945 31.472 69.0092 31.728C69.3292 31.9787 69.5132 32.304 69.5612 32.704H68.9532C68.9158 32.4747 68.7905 32.272 68.5772 32.096C68.3638 31.9147 68.0758 31.824 67.7132 31.824C67.3772 31.824 67.0972 31.9147 66.8732 32.096C66.6492 32.272 66.5372 32.5147 66.5372 32.824C66.5372 33.0587 66.5985 33.248 66.7212 33.392C66.8438 33.536 66.9958 33.6453 67.1772 33.72C67.3638 33.7947 67.6145 33.8747 67.9292 33.96C68.2918 34.0613 68.5852 34.1627 68.8092 34.264C69.0332 34.36 69.2225 34.5093 69.3772 34.712C69.5318 34.9147 69.6092 35.1867 69.6092 35.528C69.6092 35.7893 69.5398 36.0373 69.4012 36.272C69.2625 36.5067 69.0572 36.696 68.7852 36.84C68.5132 36.984 68.1878 37.056 67.8092 37.056ZM76.3633 31.408V31.872H74.8113V37H74.2513V31.872H72.6913V31.408H76.3633ZM81.3435 37.056C80.9755 37.056 80.6502 36.992 80.3675 36.864C80.0902 36.736 79.8715 36.5573 79.7115 36.328C79.5515 36.0987 79.4662 35.8427 79.4555 35.56H80.0475C80.0742 35.832 80.1942 36.072 80.4075 36.28C80.6209 36.4827 80.9329 36.584 81.3435 36.584C81.7222 36.584 82.0209 36.488 82.2395 36.296C82.4635 36.0987 82.5755 35.8507 82.5755 35.552C82.5755 35.312 82.5142 35.12 82.3915 34.976C82.2689 34.8267 82.1169 34.7173 81.9355 34.648C81.7542 34.5733 81.5035 34.4933 81.1835 34.408C80.8102 34.3067 80.5142 34.208 80.2955 34.112C80.0769 34.016 79.8902 33.8667 79.7355 33.664C79.5809 33.4613 79.5035 33.1867 79.5035 32.84C79.5035 32.552 79.5782 32.296 79.7275 32.072C79.8769 31.8427 80.0875 31.664 80.3595 31.536C80.6315 31.408 80.9435 31.344 81.2955 31.344C81.8129 31.344 82.2289 31.472 82.5435 31.728C82.8635 31.9787 83.0475 32.304 83.0955 32.704H82.4875C82.4502 32.4747 82.3249 32.272 82.1115 32.096C81.8982 31.9147 81.6102 31.824 81.2475 31.824C80.9115 31.824 80.6315 31.9147 80.4075 32.096C80.1835 32.272 80.0715 32.5147 80.0715 32.824C80.0715 33.0587 80.1329 33.248 80.2555 33.392C80.3782 33.536 80.5302 33.6453 80.7115 33.72C80.8982 33.7947 81.1489 33.8747 81.4635 33.96C81.8262 34.0613 82.1195 34.1627 82.3435 34.264C82.5675 34.36 82.7569 34.5093 82.9115 34.712C83.0662 34.9147 83.1435 35.1867 83.1435 35.528C83.1435 35.7893 83.0742 36.0373 82.9355 36.272C82.7969 36.5067 82.5915 36.696 82.3195 36.84C82.0475 36.984 81.7222 37.056 81.3435 37.056Z" fill="white"/>
<g clip-path="url(#clip0_3613_33421)">
<path d="M42.3541 9.08996C42.3626 7.58365 40.8161 6.57219 39.4685 7.17085C38.7139 7.5061 38.2341 8.24191 38.2406 9.05561L38.2239 15.0277L38.2187 16.7355L38.2187 19.5183C38.2397 21.5995 40.3521 23.0128 42.2386 22.1747C42.2925 22.1508 42.3343 22.0995 42.337 22.033L42.3541 9.08996Z" fill="white"/>
<path d="M79.6704 7.03473C81.145 7.03473 82.1476 8.58697 81.5283 9.96011L73.5659 27.8407C73.5364 27.9004 73.4774 27.9303 73.4184 27.9303C71.3541 27.9303 69.9975 25.781 70.8232 23.8706L72.6811 19.6915L67.9037 10.0198C67.2254 8.64667 68.2281 7.00488 69.7321 7.00488C70.4988 7.00488 71.2066 7.45264 71.5605 8.16906L74.834 14.8258L77.783 8.22876C78.1369 7.51235 78.8742 7.03473 79.6704 7.03473Z" fill="white"/>
<path d="M60.0587 2.07979V21.9902H57.9649C57.1097 21.9902 56.3134 21.4828 55.9595 20.7066C55.5172 21.1843 54.8684 21.5723 54.0721 21.9007C53.2759 22.1992 52.4207 22.3783 51.5654 22.3783C50.5038 22.3783 49.5306 22.1693 48.6459 21.7514C47.7611 21.3335 46.9944 20.7664 46.3456 20.0499C45.6968 19.3335 45.1955 18.4977 44.8416 17.5425C44.4877 16.5872 44.2812 15.5723 44.2812 14.4977C44.2812 13.4231 44.4582 12.4081 44.8416 11.4529C45.1955 10.4977 45.7263 9.66187 46.3456 8.94546C46.9944 8.22904 47.7611 7.66187 48.6459 7.24396C49.5306 6.82605 50.5038 6.6171 51.5654 6.6171C52.5091 6.6171 53.3349 6.7365 54.0426 6.94546C54.7799 7.15441 55.3992 7.54247 55.9595 8.04993V2.07979C55.9595 0.945458 56.8737 -0.00976562 58.0239 -0.00976562C59.1445 -0.00976562 60.0587 0.915607 60.0587 2.07979ZM55.9595 14.5275C55.9595 13.7514 55.8711 13.0947 55.6646 12.5574C55.4582 12.0201 55.1928 11.6022 54.8389 11.2738C54.485 10.9455 54.0721 10.7067 53.6003 10.5574C53.1284 10.4081 52.6271 10.3186 52.0963 10.3186C51.5654 10.3186 51.0641 10.438 50.5922 10.6469C50.1204 10.8559 49.7075 11.1544 49.3831 11.5425C49.0292 11.9007 48.7638 12.3484 48.5574 12.8559C48.351 13.3634 48.2625 13.9007 48.2625 14.4678C48.2625 15.0649 48.351 15.6022 48.5574 16.0798C48.7638 16.5872 49.0292 17.0052 49.3831 17.3932C49.737 17.7514 50.1499 18.0499 50.5922 18.2887C51.0641 18.4977 51.5654 18.6171 52.0963 18.6171C53.1579 18.6171 54.0721 18.2887 54.8094 17.6022C55.5467 16.9455 55.93 15.9305 55.9595 14.5275Z" fill="white"/>
<path d="M64.0995 -0.0400391C65.2201 -0.0400391 66.1638 0.885334 66.1638 2.04951V21.9898H65.2791C63.4802 21.9898 62.0352 20.5271 62.0352 18.7062V2.04951C62.0646 0.885334 62.9789 -0.0400391 64.0995 -0.0400391Z" fill="white"/>
<path d="M13.3002 10.1691C14.8964 10.1691 16.1903 8.85937 16.1903 7.24373C16.1903 5.62809 14.8964 4.31836 13.3002 4.31836C11.7041 4.31836 10.4102 5.62809 10.4102 7.24373C10.4102 8.85937 11.7041 10.1691 13.3002 10.1691Z" fill="#F7C75C"/>
<path d="M29.2556 7.00509C27.3977 7.00509 25.6872 7.78121 24.5076 9.03495C23.2985 7.81106 21.6175 7.00509 19.7301 7.00509C18.9634 7.00509 18.2261 7.15435 17.5183 7.39315C17.5478 7.54241 17.5478 7.69166 17.5478 7.84091C17.5478 9.87077 15.9258 11.5424 13.891 11.5424C13.7435 11.5424 13.6551 11.5424 13.5076 11.5126C13.2717 12.229 13.2422 12.9752 13.2422 13.7514V20.4976C13.2422 22.1693 15.0116 23.3932 16.7811 21.3633V13.8111C16.7811 12.229 18.0786 10.9155 19.6416 10.8558C21.2636 10.7961 22.6792 12.1096 22.6792 13.7514V20.4976C22.6792 22.1693 24.4486 23.3932 26.2181 21.3633V13.7514C26.2181 12.1394 27.6336 10.826 29.2556 10.8558C30.8186 10.8857 32.1162 12.229 32.1162 13.8111V20.4976C32.1162 22.1693 34.4754 23.3932 35.95 21.3633V13.8409C35.95 10.1096 32.9419 6.97524 29.2556 7.00509Z" fill="white"/>
</g>
<defs>
<clipPath id="clip0_3613_33421">
<rect width="77" height="28" fill="white" transform="translate(9.91016)"/>
</clipPath>
</defs>
</svg>
