<svg width="105" height="121" viewBox="0 0 105 121" fill="none" xmlns="http://www.w3.org/2000/svg">
<path d="M52.5395 120.196C4.1251 108.508 0.108929 51.8332 0.108643 12.3538C16.1716 3.17909 59.591 -9.66551 104.765 12.3538C106.217 75.6492 89.513 106.947 52.5395 120.196Z" fill="#DAEF64"/>
<path d="M52.5258 105.563C15.5019 96.6258 12.4306 53.2845 12.4304 23.0935C24.7142 16.0773 57.9183 6.25467 92.4643 23.0935C93.5747 71.4973 80.8006 95.432 52.5258 105.563Z" fill="black"/>
<path d="M62.4462 36.8066V41.2026H42.5146V36.8066C42.5146 31.3026 46.9765 26.8408 52.4804 26.8408C57.9844 26.8408 62.4462 31.3026 62.4462 36.8066Z" stroke="#DAEF64" stroke-width="4"/>
<rect x="32.0994" y="38.3508" width="40.762" height="41.1083" rx="5" fill="#DAEF64"/>
<path d="M64.3394 68.4898C62.5312 70.298 60.2484 71.5578 57.7547 72.1238C55.2609 72.6898 52.6579 72.5388 50.2464 71.6883C47.8348 70.8379 45.7129 69.3226 44.1259 67.3175C42.5388 65.3124 41.5514 62.8993 41.2774 60.3568C41.0035 57.8144 41.4544 55.2463 42.5779 52.9492C43.7015 50.6521 45.4519 48.7196 47.627 47.375C49.8021 46.0304 52.3132 45.3285 54.8703 45.3503C57.4274 45.3722 59.9261 46.1169 62.0779 47.4985L60.0547 50.6497C58.4974 49.6498 56.689 49.1108 54.8383 49.095C52.9877 49.0792 51.1703 49.5872 49.5961 50.5603C48.0219 51.5335 46.7551 52.9321 45.9419 54.5946C45.1288 56.257 44.8025 58.1156 45.0007 59.9557C45.199 61.7958 45.9136 63.5422 47.0622 64.9934C48.2108 66.4445 49.7465 67.5412 51.4918 68.1567C53.2372 68.7722 55.121 68.8815 56.9258 68.4718C58.7306 68.0622 60.3828 67.1504 61.6914 65.8418L64.3394 68.4898Z" fill="black"/>
<path d="M38.4659 54.9521H58.3006L56.6711 58.0915H36.8364L38.4659 54.9521Z" fill="black"/>
<path d="M38.2808 59.7185H55.8489L54.2195 62.8579H36.6514L38.2808 59.7185Z" fill="black"/>
</svg>
