<svg width="83" height="87" viewBox="0 0 83 87" fill="none" xmlns="http://www.w3.org/2000/svg">
<path d="M21.25 27.125C21.25 23.3538 21.25 21.4681 22.4216 20.2966C23.5931 19.125 25.4788 19.125 29.25 19.125H38.75C42.5212 19.125 44.4069 19.125 45.5784 20.2966C46.75 21.4681 46.75 23.3538 46.75 27.125V35.875C46.75 39.6462 46.75 41.5319 45.5784 42.7034C44.4069 43.875 42.5212 43.875 38.75 43.875H29.25C25.4788 43.875 23.5931 43.875 22.4216 42.7034C21.25 41.5319 21.25 39.6462 21.25 35.875V27.125Z" stroke="white" stroke-width="2"/>
<path fill-rule="evenodd" clip-rule="evenodd" d="M44.75 35.0398L43.149 33.4859L43.1027 33.4409C42.4841 32.8405 41.9501 32.3221 41.4659 31.9628C40.9464 31.5773 40.3714 31.2867 39.6667 31.2867C38.9619 31.2867 38.3869 31.5773 37.8674 31.9628C37.3832 32.3221 36.8493 32.8404 36.2307 33.4409L36.2307 33.4409L36.1843 33.4859L35.3654 34.2807C34.8734 34.7583 34.5835 35.036 34.359 35.1977L34.3494 35.2046L34.3431 35.1946C34.1957 34.9606 34.0311 34.5943 33.7541 33.9671L32.9861 32.2277L32.9542 32.1554C32.4539 31.0223 32.0337 30.0705 31.6023 29.3856C31.1501 28.6676 30.5645 28.0434 29.6543 27.8662C28.7441 27.689 27.9671 28.048 27.2786 28.5439C26.6218 29.017 25.8752 29.7417 24.9865 30.6044L24.9864 30.6044L24.9298 30.6594L23.25 32.2898V35.0769L26.3227 32.0946C27.2833 31.1623 27.9247 30.5434 28.4475 30.1668C28.9526 29.803 29.1569 29.8069 29.2721 29.8294C29.3874 29.8518 29.5783 29.9248 29.91 30.4514C30.2534 30.9967 30.6158 31.811 31.1565 33.0355L31.9246 34.775L31.9517 34.8364C32.1919 35.3806 32.4151 35.8863 32.6508 36.2605C32.907 36.6673 33.2985 37.1172 33.9523 37.2445C34.6062 37.3718 35.1378 37.1016 35.5279 36.8206C35.8867 36.5621 36.2833 36.1771 36.7101 35.7627L36.7102 35.7627L36.7584 35.7159L37.5772 34.9211C38.2555 34.2628 38.6944 33.8396 39.0592 33.569C39.4008 33.3155 39.5604 33.2867 39.6667 33.2867C39.7729 33.2867 39.9326 33.3155 40.2741 33.569C40.6389 33.8396 41.0778 34.2628 41.7561 34.9211L44.6369 37.7171L44.7442 37.6065C44.7495 37.0971 44.75 36.5243 44.75 35.8746V35.0398ZM34.2162 35.2851C34.2163 35.285 34.2177 35.2844 34.2203 35.2836C34.2175 35.2848 34.2162 35.2852 34.2162 35.2851ZM34.4394 35.3263C34.4416 35.328 34.4426 35.3291 34.4426 35.3292C34.4426 35.3293 34.4416 35.3284 34.4394 35.3263Z" fill="white"/>
<ellipse cx="40.375" cy="25.3125" rx="2.125" ry="2.0625" fill="white"/>
<path d="M55.0503 36.25H47.75C44.4502 36.25 42.8003 36.25 41.7751 37.2751C40.75 38.3003 40.75 39.9502 40.75 43.25V60.75C40.75 64.0498 40.75 65.6997 41.7751 66.7249C42.8003 67.75 44.4502 67.75 47.75 67.75H58.25C61.5498 67.75 63.1997 67.75 64.2249 66.7249C65.25 65.6997 65.25 64.0498 65.25 60.75V46.4497C65.25 45.7344 65.25 45.3768 65.1168 45.0552C64.9836 44.7336 64.7307 44.4807 64.2249 43.9749L57.5251 37.2751C57.0193 36.7693 56.7664 36.5164 56.4448 36.3832C56.1232 36.25 55.7656 36.25 55.0503 36.25Z" fill="#0F111C" stroke="white" stroke-width="2"/>
<path d="M56.2468 55.6411L50.6772 53.2541C49.2915 52.6602 47.75 53.6767 47.75 55.1843V59.3148C47.75 60.8225 49.2915 61.8389 50.6772 61.245L56.2468 58.8581C57.661 58.252 57.661 56.2471 56.2468 55.6411Z" stroke="white" stroke-width="2" stroke-linecap="round" stroke-linejoin="round"/>
<path d="M54.75 36.25V43.25C54.75 44.8999 54.75 45.7249 55.2626 46.2374C55.7751 46.75 56.6001 46.75 58.25 46.75H65.25" stroke="white" stroke-width="2"/>
<path d="M5 12C5 8.22876 5 6.34315 6.17157 5.17157C7.34314 4 9.22876 4 13 4H70C73.7712 4 75.6569 4 76.8284 5.17157C78 6.34315 78 8.22876 78 12V79.3583C78 80.9666 78 81.7708 77.4814 82.0557C76.9627 82.3405 76.2841 81.909 74.9269 81.046L74.3338 80.6689C72.1387 79.2732 71.0411 78.5753 69.8093 78.2169C68.5776 77.8584 67.2769 77.8584 64.6757 77.8584H13C9.22876 77.8584 7.34314 77.8584 6.17157 76.6868C5 75.5153 5 73.6297 5 69.8584V12Z" stroke="white" stroke-width="2"/>
</svg>
