<svg width="9" height="8" viewBox="0 0 9 8" fill="none" xmlns="http://www.w3.org/2000/svg">
<path d="M3.87166 0.369775C4.02134 -0.0908805 4.67305 -0.0908802 4.82272 0.369775L5.35302 2.00186C5.41995 2.20787 5.61193 2.34735 5.82855 2.34735L7.54462 2.34735C8.02898 2.34735 8.23037 2.96716 7.83851 3.25186L6.45018 4.26054C6.27493 4.38786 6.20161 4.61355 6.26854 4.81956L6.79884 6.45164C6.94851 6.9123 6.42127 7.29536 6.02942 7.01066L4.64109 6.00197C4.46584 5.87465 4.22854 5.87465 4.0533 6.00197L2.66497 7.01066C2.27311 7.29536 1.74587 6.91229 1.89555 6.45164L2.42584 4.81956C2.49278 4.61355 2.41945 4.38786 2.24421 4.26054L0.855875 3.25186C0.464018 2.96716 0.665406 2.34735 1.14977 2.34735L2.86584 2.34735C3.08245 2.34735 3.27443 2.20787 3.34137 2.00186L3.87166 0.369775Z" fill="#888B9A"/>
</svg>
