<svg width="36" height="36" viewBox="0 0 36 36" fill="none" xmlns="http://www.w3.org/2000/svg">
<path d="M16.0343 6.79286C16.2846 6.72578 16.5496 6.73767 16.7929 6.82689C17.0363 6.91612 17.2462 7.07832 17.3939 7.29136L18.4724 8.84682C18.6423 9.09198 18.8941 9.26826 19.1818 9.34497L21.2973 9.91199C21.5845 9.98891 21.8897 9.96159 22.1588 9.83488L23.8711 9.0278C24.1056 8.91685 24.3687 8.88113 24.6244 8.92554C24.88 8.96996 25.1157 9.09233 25.2992 9.27591L26.7213 10.6936C26.9049 10.8766 27.0276 11.1117 27.0727 11.367C27.1177 11.6223 27.0829 11.8853 26.973 12.1201L26.1665 13.8328C26.0394 14.1022 26.0119 14.408 26.0888 14.6958L26.6556 16.8121C26.7328 17.0998 26.9095 17.3508 27.1542 17.5205L28.7086 18.6004C28.9211 18.7487 29.0827 18.959 29.1713 19.2027C29.2599 19.4463 29.2711 19.7114 29.2035 19.9616L28.6805 21.9008C28.6134 22.1513 28.4706 22.375 28.2716 22.5412C28.0727 22.7075 27.8273 22.8082 27.5689 22.8297L25.6827 22.9873C25.3863 23.0121 25.1084 23.1411 24.8981 23.3514L23.3494 24.9007C23.1389 25.1116 23.0096 25.39 22.984 25.687L22.8274 27.5735C22.8059 27.8322 22.705 28.0778 22.5386 28.2769C22.3722 28.476 22.1484 28.6188 21.8978 28.6857L19.9526 29.2071C19.7023 29.2742 19.4373 29.2623 19.194 29.1731C18.9506 29.0839 18.7407 28.9217 18.593 28.7086L17.5145 27.1532C17.3441 26.9092 17.0935 26.7327 16.8063 26.6547L14.6896 26.088C14.4024 26.0111 14.0972 26.0384 13.8281 26.1651L12.1158 26.9722C11.8813 27.0832 11.6182 27.1189 11.3625 27.0745C11.1069 27.03 10.8712 26.9077 10.6877 26.7241L9.26563 25.3064C9.082 25.1234 8.95927 24.8883 8.91422 24.633C8.86916 24.3777 8.90397 24.1147 9.01389 23.8799L9.82039 22.1672C9.94751 21.8978 9.97504 21.592 9.89808 21.3042L9.33128 19.1879C9.25409 18.9002 9.07744 18.6492 8.83271 18.4795L7.29044 17.3964C7.07791 17.248 6.91633 17.0377 6.82776 16.7941C6.73919 16.5504 6.72794 16.2854 6.79555 16.0351L7.31859 14.096C7.3857 13.8454 7.52848 13.6218 7.72744 13.4555C7.92639 13.2892 8.1718 13.1885 8.43015 13.167L10.3164 13.0095C10.6127 12.9846 10.8907 12.8556 11.101 12.6453L12.6509 11.0957C12.8602 10.8845 12.9889 10.6062 13.015 10.3098L13.1717 8.4232C13.193 8.16672 13.2924 7.92293 13.4564 7.72467C13.6204 7.5264 13.8412 7.38318 14.0891 7.3143L16.0343 6.79286Z" stroke="white" stroke-width="1.5" stroke-linecap="round" stroke-linejoin="round"/>
<path d="M18.8893 21.3447C20.7357 20.8498 21.8315 18.951 21.3367 17.1038C20.842 15.2565 18.9441 14.1603 17.0976 14.6552C15.2512 15.1502 14.1555 17.049 14.6502 18.8962C15.145 20.7435 17.0429 21.8397 18.8893 21.3447Z" stroke="white" stroke-width="1.5" stroke-linecap="round" stroke-linejoin="round"/>
</svg>
