<svg width="32" height="32" viewBox="0 0 32 32" fill="none" xmlns="http://www.w3.org/2000/svg">
<g clip-path="url(#clip0_927_4122)">
<path d="M11.7333 9.33333L12.3136 7.52C12.4551 7.07732 12.7269 6.69228 13.0902 6.41946C13.4536 6.14664 13.8902 5.99989 14.3381 6H17.6619C18.1102 5.99942 18.5472 6.14596 18.911 6.41881C19.2748 6.69166 19.5469 7.07696 19.6885 7.52L20.2667 9.33333M9.6 12.6667V23.7778C9.6 24.3671 9.82476 24.9324 10.2248 25.3491C10.6249 25.7659 11.1675 26 11.7333 26H20.2667C20.8325 26 21.3751 25.7659 21.7752 25.3491C22.1752 24.9324 22.4 24.3671 22.4 23.7778V12.6667H9.6ZM18.1333 13.7778V21.5556V13.7778ZM13.8667 13.7778V21.5556V13.7778ZM8 9.33333H24H8Z" stroke="#FFA5A5" stroke-width="1.5" stroke-linecap="round" stroke-linejoin="round"/>
</g>
<defs>
<clipPath id="clip0_927_4122">
<rect width="32" height="32" fill="white"/>
</clipPath>
</defs>
</svg>
