<svg width="32" height="32" viewBox="0 0 32 32" fill="none" xmlns="http://www.w3.org/2000/svg">
<g clip-path="url(#clip0_4200_52260)">
<path d="M14.0892 21.8783L24.412 11.5555C24.7885 11.1789 25 10.6681 25 10.1356C25 9.60304 24.7885 9.09231 24.412 8.71569L23.2853 7.58801C22.9087 7.21151 22.398 7 21.8654 7C21.3329 7 20.8221 7.21151 20.4455 7.58801L10.1217 17.9118C9.97538 18.0586 9.85244 18.2269 9.75719 18.4109L7.11624 23.5281C6.66838 24.3967 7.59924 25.3286 8.46784 24.8818L13.5881 22.2448C13.7739 22.1484 13.9426 22.0259 14.0892 21.8783V21.8783Z" stroke="white" stroke-width="1.8" stroke-linecap="round" stroke-linejoin="round"/>
<path d="M9.93994 18.168L13.8361 22.0641" stroke="white" stroke-width="1.8" stroke-linecap="round" stroke-linejoin="round"/>
<path d="M22.0804 25.0063H8.06226" stroke="white" stroke-width="1.8" stroke-linecap="round" stroke-linejoin="round"/>
</g>
<defs>
<clipPath id="clip0_4200_52260">
<rect width="32" height="32" fill="white"/>
</clipPath>
</defs>
</svg>
