<svg width="33" height="32" viewBox="0 0 33 32" fill="none" xmlns="http://www.w3.org/2000/svg">
<path d="M17.3207 21.576C12.4703 21.576 10.9674 11.192 10.8223 6H23.9531C23.9531 14.9207 20.6965 21.576 17.3207 21.576Z" stroke="#81859D" stroke-linejoin="round"/>
<path d="M11.0055 8.82772L7.82978 8.68164L8.78228 11.6978L6.91699 11.5788L11.5802 19.2582L10.3102 13.583L11.7588 13.702" stroke="#81859D" stroke-linejoin="round"/>
<path d="M23.8685 8.82772L27.0442 8.68164L26.0917 11.6978L27.957 11.5788L23.2939 19.2582L24.5638 13.583L23.0578 13.7087" stroke="#81859D" stroke-linejoin="round"/>
<path d="M16.2254 21.4482C16.3467 22.4364 15.7885 24.4126 12.585 24.4126" stroke="#81859D" stroke-linejoin="round"/>
<path d="M18.2687 21.4482C18.1474 22.4364 18.7056 24.4126 21.9092 24.4126" stroke="#81859D" stroke-linejoin="round"/>
<rect x="13.085" y="24.9121" width="8.32415" height="2.58828" stroke="#81859D"/>
</svg>
