<svg width="20" height="21" viewBox="0 0 20 21" fill="none" xmlns="http://www.w3.org/2000/svg">
<g clip-path="url(#clip0_3783_43859)">
<rect y="0.948242" width="20" height="20" rx="10" fill="#E18DFF"/>
<path d="M7.33333 6.78158L7.696 5.64824C7.78446 5.37157 7.95429 5.13092 8.1814 4.96041C8.40851 4.78989 8.68138 4.69817 8.96133 4.69824H11.0387C11.3188 4.69788 11.592 4.78947 11.8194 4.96C12.0468 5.13053 12.2168 5.37134 12.3053 5.64824L12.6667 6.78158M6 8.86491V15.8094C6 16.1777 6.14048 16.531 6.39052 16.7914C6.64057 17.0519 6.97971 17.1982 7.33333 17.1982H12.6667C13.0203 17.1982 13.3594 17.0519 13.6095 16.7914C13.8595 16.531 14 16.1777 14 15.8094V8.86491H6ZM11.3333 9.55935V14.4205V9.55935ZM8.66667 9.55935V14.4205V9.55935ZM5 6.78158H15H5Z" stroke="#0F111C" stroke-width="1.5" stroke-linecap="round" stroke-linejoin="round"/>
</g>
<defs>
<clipPath id="clip0_3783_43859">
<rect y="0.948242" width="20" height="20" rx="10" fill="white"/>
</clipPath>
</defs>
</svg>
