<svg width="33" height="32" viewBox="0 0 33 32" fill="none" xmlns="http://www.w3.org/2000/svg">
<path d="M16.5957 26C22.1185 26 26.5957 21.5228 26.5957 16C26.5957 10.4772 22.1185 6 16.5957 6C11.0729 6 6.5957 10.4772 6.5957 16C6.5957 21.5228 11.0729 26 16.5957 26Z" stroke="#81859D"/>
<path d="M16.5962 15.9621C17.8333 15.9621 18.836 14.9593 18.836 13.7223C18.836 12.4853 17.8333 11.4824 16.5962 11.4824C15.3592 11.4824 14.3564 12.4853 14.3564 13.7223C14.3564 14.9593 15.3592 15.9621 16.5962 15.9621Z" stroke="#81859D"/>
<path d="M9.53516 22.8891C10.2587 21.3929 12.6847 18.4004 16.5995 18.4004C20.5143 18.4004 22.8666 21.2948 23.5534 22.7421" stroke="#81859D" stroke-linecap="round"/>
</svg>
