<svg width="67" height="67" viewBox="0 0 67 67" fill="none" xmlns="http://www.w3.org/2000/svg">
<path fill-rule="evenodd" clip-rule="evenodd" d="M4.55078 33.5762C4.55078 17.5486 17.5437 4.55566 33.5714 4.55566C49.599 4.55566 62.5919 17.5486 62.5919 33.5762C62.5919 49.6039 49.599 62.5968 33.5714 62.5968C17.5437 62.5968 4.55078 49.6039 4.55078 33.5762ZM33.5714 1.55566C15.8869 1.55566 1.55078 15.8918 1.55078 33.5762C1.55078 51.2607 15.8869 65.5968 33.5714 65.5968C51.2558 65.5968 65.5919 51.2607 65.5919 33.5762C65.5919 15.8918 51.2558 1.55566 33.5714 1.55566ZM44.7451 29.2136C45.5262 28.4326 45.5262 27.1663 44.7451 26.3852C43.9641 25.6042 42.6978 25.6042 41.9167 26.3852L31.7769 36.525L28.0009 32.749C27.2199 31.968 25.9536 31.968 25.1725 32.749C24.3915 33.5301 24.3915 34.7964 25.1725 35.5775L30.3627 40.7676C31.1437 41.5487 32.4101 41.5487 33.1911 40.7676L44.7451 29.2136Z" fill="url(#paint0_linear_4484_52914)"/>
<defs>
<linearGradient id="paint0_linear_4484_52914" x1="33.5714" y1="1.55566" x2="33.5714" y2="65.5968" gradientUnits="userSpaceOnUse">
<stop stop-color="#01FF2F"/>
<stop offset="1" stop-color="#024FFF"/>
</linearGradient>
</defs>
</svg>
