<svg width="33" height="32" viewBox="0 0 33 32" fill="none" xmlns="http://www.w3.org/2000/svg">
<path d="M18.7607 5.5H14.4316C12.5319 5.5 11.1574 5.50106 10.1092 5.64199C9.07535 5.78098 8.43416 6.04772 7.95675 6.52513C7.47935 7.00253 7.21261 7.64372 7.07362 8.67754C6.93269 9.72573 6.93163 11.1002 6.93163 13V17.5682C6.93163 19.4679 6.93269 20.8424 7.07362 21.8906C7.21261 22.9244 7.47935 23.5656 7.95675 24.043C8.43416 24.5204 9.07536 24.7872 10.1092 24.9262C11.1574 25.0671 12.5319 25.0682 14.4316 25.0682H22.9347C24.0578 25.0682 25.1577 25.3882 26.1055 25.9908C26.1727 26.0336 26.2607 25.9853 26.2607 25.9056V13C26.2607 11.1002 26.2597 9.72573 26.1188 8.67754C25.9798 7.64373 25.713 7.00253 25.2356 6.52513C24.7582 6.04772 24.117 5.78098 23.0832 5.64199C22.035 5.50106 20.6605 5.5 18.7607 5.5Z" stroke="#81859D"/>
<path d="M14.6963 12.5392C14.6963 11.2594 15.734 10.2217 17.0139 10.2217C18.2937 10.2217 19.3314 11.2594 19.3314 12.5392C19.3314 13.8191 18.2937 14.8568 17.0139 14.8568C15.734 14.8568 14.6963 13.8191 14.6963 12.5392Z" stroke="#81859D"/>
<path d="M20.2905 20.0153C20.3659 20.0153 20.4248 19.9502 20.4173 19.8752V19.8752L20.4033 19.7421L20.3823 19.609L20.3613 19.4759L20.3333 19.3428L20.2983 19.2097L20.2632 19.0766L20.2212 18.9505L20.1792 18.8175L20.1301 18.6914L20.0741 18.5653L20.0181 18.4392L19.99 18.3832L19.955 18.3201L19.927 18.2571L19.892 18.201L19.857 18.138L19.8219 18.082L19.7869 18.0259L19.7449 17.9699L19.7099 17.9138L19.6748 17.8648L19.6328 17.8088L19.5908 17.7597L19.5557 17.7107L19.5137 17.6547L19.4927 17.6302C19.4787 17.6138 19.4635 17.5986 19.4472 17.5846V17.5846C19.4309 17.5706 19.4156 17.5554 19.4016 17.5391L19.3806 17.5146L19.3386 17.4655L19.2896 17.4165L19.2475 17.3745L19.1985 17.3325L19.1495 17.2904L19.143 17.284C19.1147 17.2556 19.084 17.2297 19.0514 17.2064V17.2064L19.0024 17.1643L18.9784 17.1438C18.9617 17.1295 18.944 17.1165 18.9253 17.1048L18.9247 17.1044C18.9065 17.093 18.8891 17.0803 18.8728 17.0663V17.0663C18.8565 17.0523 18.8391 17.0395 18.8209 17.0281L18.7922 17.0102L18.7362 16.9752L18.6872 16.9402L18.6311 16.9052L18.5751 16.8771L18.519 16.8421L18.463 16.8141L18.407 16.7861L18.3439 16.7581L18.2879 16.73L18.2319 16.709L18.1688 16.681L18.0988 16.66L18.0287 16.632L17.9587 16.611L17.8886 16.59L17.8186 16.5689L17.7415 16.5549L17.6715 16.5409L17.6014 16.5269L17.5244 16.5129L17.4543 16.4989L17.3773 16.4919L17.3072 16.4849L17.2302 16.4779L17.1601 16.4709H17.0831V16.4709C17.0365 16.4662 16.9896 16.466 16.9429 16.4702L16.936 16.4709H16.8659L16.7889 16.4779L16.7188 16.4849L16.6418 16.4919L16.5717 16.4989L16.4947 16.5129L16.4246 16.5269L16.3476 16.5409L16.2775 16.5549L16.2075 16.5689L16.1374 16.59L16.0604 16.611L15.9903 16.632L15.9203 16.66L15.9103 16.663C15.8703 16.675 15.8315 16.6904 15.7942 16.709V16.709L15.7382 16.73L15.6751 16.7581L15.6191 16.7861L15.5631 16.8141L15.507 16.8421L15.451 16.8771L15.3949 16.9052L15.3389 16.9402L15.2829 16.9752L15.2268 17.0102L15.1778 17.0453L15.1218 17.0873L15.0727 17.1223L15.0237 17.1643L14.9747 17.2064V17.2064C14.942 17.2297 14.9114 17.2556 14.883 17.284L14.8766 17.2904L14.8276 17.3325L14.7785 17.3745V17.3745C14.7459 17.4025 14.7154 17.4329 14.6875 17.4655V17.4655L14.6384 17.5146L14.5964 17.5636L14.5544 17.6056L14.5123 17.6547L14.4703 17.7107L14.4283 17.7597L14.3933 17.8088L14.3512 17.8648L14.3162 17.9138L14.2742 17.9699L14.2392 18.0259L14.2041 18.082L14.1691 18.138L14.1341 18.201L14.0991 18.2571L14.064 18.3201L14.036 18.3832L14.001 18.4392L13.945 18.5653L13.8959 18.6914L13.8469 18.8175L13.7979 18.9505L13.7628 19.0766L13.7208 19.2097L13.6928 19.3428L13.6648 19.4759L13.6368 19.609L13.6157 19.7421L13.6017 19.8752V19.8752C13.5979 19.9514 13.6587 20.0153 13.735 20.0153H20.2905Z" stroke="#81859D" stroke-miterlimit="10" stroke-linecap="round" stroke-linejoin="round"/>
</svg>
